<svg version="1" xmlns="http://www.w3.org/2000/svg" width="682.667" height="682.667" viewBox="0 0 512.000000 512.000000"><path d="M240.9 65.5c-21.3 4.2-40.8 20.2-46.6 38-1.1 3.4-1.8 10.4-2.2 21.5l-.6 16.5-4.2-8.6c-13.4-27.4-47-40.8-79.7-31.7-18.7 5.2-35.1 19.5-40.8 35.6-2.8 7.9-3.4 19.2-1.5 26.7.8 3.3 15.2 36.6 31.9 74l30.3 68 .5 49.5c.5 49 .6 49.6 2.9 55.3 4.8 12.1 16.5 24.2 29.6 30.6 14.3 6.9 8.1 6.5 111.4 6.9 106.4.3 103 .5 119-7.4 11.4-5.6 21.2-14.7 25.9-24 3.1-6.2 24.8-78.4 28.5-94.9 2.8-12.7 3.7-67.3 1.3-77.8-2-8.4-5.2-14.9-10.5-20.9-9.4-10.7-30-19.7-44.8-19.8-4.7 0-5.3-.3-7.2-3.3-5.6-9.2-18.7-18.7-31.3-22.8-6.2-2-9.3-2.4-20-2.4H320v-30.3c0-33.5-.8-39.7-5.9-48.7-6.3-11-18.8-21.6-31.1-26.5-12.1-4.8-28.7-6.2-42.1-3.5zm29.2 29.2c6.1 2.7 12.3 8.4 14.8 13.7 2 4 2.1 6.4 2.7 64.1l.5 60-13.4 25-13.5 25-30.3.5-30.4.5-5.5 2.7c-3.1 1.5-10.2 6.9-15.9 12-5.7 5.1-12.1 10.8-14.2 12.6l-3.9 3.4v-6.1c0-5.5-.8-8-9.1-26.3-11.7-26.1-23-51.3-38.6-86.3-6.8-15.4-13.1-29.4-14-31-.8-1.7-1.7-6-2-9.7-.5-5.9-.2-7.4 2.1-12.2 8.8-18 35.7-21.9 52-7.6 2.8 2.5 7.3 9.8 8.2 13.5.3 1 5 11.7 15.3 34.5 2.6 5.8 11 24.6 18.6 41.7l13.8 31.3h17.8l-.6-52.8c-.4-29-.3-61.8.2-72.9l.8-20.2 3-4.2c7-9.8 16.2-14.2 29-13.6 5.3.2 9.6 1 12.6 2.4zM344.7 204c6.1 2.6 12.5 9.1 14.3 14.5 2.7 8.1 1.7 10.6-19.7 50.9L319.2 307l-2.7-5.5c-5.5-11.3-16.9-17.3-34.7-18.2-6-.3-10.8-.7-10.8-.9 0-1.2 35.8-67.6 37.9-70.3 8.2-10.4 22.8-13.7 35.8-8.1zm56.5 28.8c9.9 4.4 16.4 15.7 14 24.5-1.6 5.9-42.3 82.1-45.8 85.8-7.1 7.5-19.8 10.7-30.6 7.5-7.2-2-15-8.9-17.4-15.1-3.2-8.6-2.5-10.6 18.6-50.5 25.8-48.6 26.2-49.2 37.4-53.2 6.4-2.3 17.4-1.9 23.8 1zm13.9 67.2c-1.1 16-1.7 18.2-16.7 69.5-9.9 33.7-12 38.5-18.8 43.6-9.5 7.2-6.9 7-84.5 6.7-38.3-.1-76.9-.4-85.8-.8l-16.3-.5-2.2-3.1c-1.3-1.8-5.2-6.9-8.8-11.4-3.6-4.5-7.8-10.1-9.5-12.4-1.6-2.3-4.8-6.4-7-9l-3.9-4.8-.4-25.2-.4-25.1 17.6-16.1c9.7-8.9 19.3-17 21.4-18 3.4-1.8 7.2-1.9 47.2-2.2 30.5-.2 44.7 0 47.4.8 12.4 3.7 19.5 14.9 17.2 27.4-.9 4.9-8.4 12.8-14.8 15.7-5.1 2.3-6.5 2.4-35.3 2.9l-30 .5v7l17.5.3c9.6.1 24.2-.1 32.5-.6 15.9-.9 19.3-1.9 27.2-7.8 3.9-2.9 3.9-2.9 4.7-.2 1.1 4.7 6.5 11.5 11.7 15 17.8 11.8 44 7.6 54.4-8.6 1.8-2.8 10.6-19.1 19.6-36.1 18.8-35.6 18-35.2 16-7.5zm-254.4 94.2c-.3.7-.5.2-.5-1.2s.2-1.9.5-1.3c.2.7.2 1.9 0 2.5z"/></svg>